# xmcd
#
# Track frame offsets:
#	150
#	17300
#	33457
#	57095
#	67080
#	84837
#	108417
#	128252
#	204415
#	247240
#	268610
#
# Disc length: 4305 seconds
#
# Revision: 2
# Processed by: cddbd v1.5.1PL0 Copyright (c) Steve Scherf et al.
# Submitted via: audiograbber 1.83.01
#
DISCID=8a10cf0b
DTITLE=Marvin Gaye - Live - The Last Concert
DYEAR=1995
DGENRE=Blues
TTITLE0=I heard It Through The Grapevine
TTITLE1=Come Get To This
TTITLE2=Let's get it on
TTITLE3=God Is Love
TTITLE4=What's going on
TTITLE5=Inner city blues (Make me wanna holler)
TTITLE6=Joy
TTITLE7=Medley (Ain't Nothin.. Your Presc. Love - If This World... - Rockin aft
TTITLE7=er Midnite)
TTITLE8=Distant Lover
TTITLE9=Intermission - Percussion Interlude
TTITLE10=Sexual healing
EXTD=YEAR: 1995 ID3G: 0
EXTT0=
EXTT1=
EXTT2=
EXTT3=
EXTT4=
EXTT5=
EXTT6=
EXTT7=
EXTT8=
EXTT9=
EXTT10=
PLAYORDER=
